<?xml version="1.0" encoding="UTF-8"?>
<svg id="Layer_1" data-name="Layer 1" xmlns="http://www.w3.org/2000/svg" viewBox="0 0 97.18 89.96">
  <defs>
    <style>
      .cls-1 {
        stroke-width: 0px;
      }
    </style>
  </defs>
  <path class="cls-1" d="M34.17,78.24c0,.91.56,1.51,1.33,1.51.57,0,1.13-.29,1.58-.79l.05-2.49h-.14c-2.1,0-2.82.39-2.82,1.77ZM37.04,32.43c0-.86-.09-1.31-.36-1.74-.29-.45-.72-.68-1.33-.68-1.15,0-1.81.91-1.81,2.51v.04h3.5v-.13h0ZM38.8,57.1c0,.9.57,1.51,1.34,1.51.56,0,1.13-.3,1.58-.79l.05-2.49h-.14c-2.1,0-2.83.39-2.83,1.76h0ZM31.06,53.22c0-.86-.09-1.31-.36-1.73-.3-.46-.73-.68-1.34-.68-1.15,0-1.8.91-1.8,2.51v.04h3.5v-.14h0ZM71.01,71.94c-1.15,0-1.8.91-1.8,2.51v.04h3.5v-.13c0-.86-.09-1.31-.36-1.74-.3-.46-.73-.68-1.34-.68Z"/>
  <path class="cls-1" d="M83.78,51.48c-.3-.16-.54-.23-.88-.23-.68,0-1.29.32-1.85.97v8.18h-3.03v-7.73c0-1.55-.18-2.73-.43-3.38l2.71-.73c.27.48.43,1,.48,1.65.43-.58,1.15-1.22,1.72-1.47.25-.11.65-.18.99-.18.46,0,.66.05,1.13.25l-.83,2.67h0ZM80.97,81.81c-1.29,0-2.33-.61-2.69-1.58-.23-.58-.27-.94-.27-2.59v-8.63c0-1.51-.04-2.44-.16-3.48l3.09-.7c.11.63.16,1.38.16,3v9.01c0,1.99.02,2.26.2,2.57.11.2.36.31.61.31.11,0,.18,0,.34-.04l.52,1.81c-.52.2-1.14.32-1.8.32ZM75.92,55.56h-6.68v.1c0,1.78.88,2.8,2.44,2.8,1.04,0,2.01-.39,2.94-1.15l1.17,1.81c-1.33,1.08-2.73,1.6-4.36,1.6-3.32,0-5.46-2.35-5.46-5.98,0-2.08.43-3.46,1.44-4.58.95-1.06,2.1-1.56,3.64-1.56,1.33,0,2.6.45,3.35,1.22,1.06,1.09,1.53,2.65,1.53,5.06v.69h0,0ZM75.85,76.7h-6.68v.09c0,1.78.88,2.8,2.44,2.8,1.04,0,2.01-.39,2.93-1.15l1.18,1.81c-1.33,1.08-2.73,1.6-4.36,1.6-3.32,0-5.47-2.35-5.47-5.98,0-2.08.43-3.46,1.44-4.58.95-1.07,2.1-1.56,3.64-1.56,1.33,0,2.6.45,3.34,1.22,1.06,1.08,1.53,2.64,1.53,5.05v.7h0ZM64.41,60.4h-2.96v-7.77c0-1.15-.32-1.58-1.17-1.58-.75,0-1.72.45-2.39,1.07v8.29h-3.07v-13.37c0-1.09-.09-2.17-.23-2.64l3.09-.72c.13.63.2,1.71.2,2.82v2.3c0,.36-.05.84-.05.97.79-.75,2.1-1.24,3.28-1.24,1.47,0,2.64.63,3,1.65.22.66.29,1.04.29,2.15v8.09h0,0ZM63.79,81.54h-2.98v-7.52c0-1.31-.23-1.69-1.02-1.69-.61,0-1.4.41-2.1,1.04v8.17h-3.03v-8.38c0-.99-.14-1.94-.4-2.71l2.69-.77c.27.47.42.97.42,1.44.45-.31.84-.59,1.33-.86.62-.31,1.4-.49,2.08-.49,1.29,0,2.42.67,2.78,1.67.17.43.23.93.23,1.65v8.45h0,0ZM50.88,60.67c-1.53,0-2.76-.67-3.12-1.69-.18-.5-.2-.73-.2-1.78v-6.28h-1.15v-2.08h1.15c0-1.13,0-1.88.11-2.73l3.07-.77c-.11,1.06-.18,2.33-.18,3.5h2.71l-.77,2.08h-1.94v5.81c0,1.47.27,1.85,1.31,1.85.27,0,.54-.07,1.08-.23l.38,1.8c-.89.36-1.67.52-2.46.52h0ZM52.01,81.54h-2.98v-7.52c0-1.31-.23-1.69-1.02-1.69-.61,0-1.39.41-2.1,1.04v8.17h-3.03v-8.38c0-.99-.13-1.94-.4-2.71l2.69-.77c.27.47.43.97.43,1.44.45-.31.83-.59,1.33-.86.61-.31,1.4-.49,2.08-.49,1.29,0,2.42.67,2.78,1.67.16.43.23.93.23,1.65v8.45h0ZM39.55,60.83c-2.58,0-3.98-1.31-3.98-3.62,0-2.71,1.87-3.97,5.55-3.97.23,0,.43,0,.68.02v-.48c0-1.28-.25-1.71-1.35-1.71-.97,0-2.1.48-3.34,1.32l-1.29-2.17c.61-.39,1.06-.61,1.88-.94,1.13-.48,2.1-.68,3.16-.68,1.94,0,3.28.72,3.73,2.01.16.47.22.83.2,2.08l-.07,3.89v.2c0,1.24.2,1.71,1.08,2.37l-1.6,1.85c-.7-.3-1.33-.81-1.63-1.4-.23.22-.48.45-.7.61-.57.41-1.38.63-2.32.63h0ZM39.56,82.13c-.7-.3-1.33-.81-1.62-1.4-.23.23-.48.45-.7.61-.57.41-1.38.63-2.33.63-2.58,0-3.98-1.31-3.98-3.61,0-2.71,1.88-3.98,5.56-3.98.23,0,.43,0,.68.02v-.47c0-1.29-.25-1.72-1.36-1.72-.97,0-2.1.48-3.34,1.31l-1.29-2.17c.61-.38,1.07-.61,1.88-.94,1.13-.48,2.1-.68,3.17-.68,1.94,0,3.27.72,3.72,2.01.16.47.23.84.21,2.08l-.07,3.89v.2c0,1.24.2,1.71,1.09,2.37l-1.61,1.85h0ZM24.24,54.74c0-2.08.43-3.46,1.44-4.58.95-1.06,2.1-1.56,3.64-1.56,1.33,0,2.6.45,3.34,1.22,1.06,1.09,1.54,2.65,1.54,5.06v.69h-6.69v.1c0,1.78.88,2.8,2.44,2.8,1.04,0,2.01-.39,2.94-1.15l1.18,1.81c-1.33,1.08-2.74,1.6-4.36,1.6-3.32,0-5.47-2.35-5.47-5.98h0ZM28.89,81.54h-2.96v-7.77c0-1.15-.32-1.58-1.17-1.58-.75,0-1.72.45-2.39,1.06v8.29h-3.07v-13.37c0-1.09-.09-2.17-.23-2.65l3.1-.72c.13.64.2,1.72.2,2.83v2.3c0,.36-.05.84-.05.98.79-.75,2.1-1.25,3.27-1.25,1.47,0,2.64.63,3,1.65.23.66.3,1.04.3,2.15v8.08ZM13.22,81.81c-2.17,0-3.84-.7-5.13-2.17-1.27-1.42-1.9-3.32-1.9-5.62,0-1.96.34-3.52,1.06-4.88,1.23-2.28,3.48-3.64,6.01-3.64,1.56,0,3.11.5,3.97,1.24l-1.42,2.14c-.79-.59-1.63-.88-2.51-.88-1.06,0-2.1.52-2.67,1.35-.61.9-.88,2.21-.88,4.04,0,2.14.18,3.34.65,4.2.63,1.15,1.67,1.76,3.03,1.76.92,0,1.76-.27,2.69-1.01l1.45,1.98c-1.24,1.01-2.57,1.46-4.36,1.46h0ZM8.95,44.7l1.35,6.19c.63,2.94.84,5.17.84,5.17.07-.61.34-2.85.81-5.01l1.4-6.35h3.46l1.45,7.03c.29,1.47.68,4.16.68,4.16.04-.5.54-3.69.86-5.22l1.29-5.96h3.32l-3.79,15.83h-3.46l-1.4-6.39c-.47-2.1-.7-4.13-.74-4.56,0,0-.27,2.21-.75,4.52l-1.31,6.43h-3.59l-3.75-15.83h3.35ZM5.72,23.92h11.31l-.52,2.62h-3.75v13.08h-3.21v-13.08h-3.84s0-2.62,0-2.62ZM21.48,22.88c.13.63.2,1.72.2,2.82v2.3c0,.36-.05.84-.05.97.79-.75,2.1-1.25,3.27-1.25,1.47,0,2.64.63,3.01,1.65.23.65.29,1.04.29,2.15v8.09h-2.96v-7.77c0-1.15-.32-1.58-1.18-1.58-.75,0-1.71.45-2.39,1.06v8.29h-3.07v-13.37c0-1.09-.09-2.17-.23-2.64l3.1-.72h0ZM31.66,29.37c.95-1.06,2.1-1.56,3.64-1.56,1.33,0,2.6.46,3.34,1.23,1.06,1.09,1.53,2.64,1.53,5.06v.7h-6.68v.09c0,1.78.88,2.8,2.44,2.8,1.04,0,2.01-.38,2.94-1.15l1.18,1.81c-1.34,1.08-2.74,1.6-4.36,1.6-3.32,0-5.47-2.35-5.47-5.98,0-2.09.43-3.46,1.45-4.59h0ZM0,0v89.96h89.96V0H0Z"/>
  <path class="cls-1" d="M71.09,50.8c-1.15,0-1.81.91-1.81,2.51v.04h3.5v-.14c0-.86-.09-1.31-.36-1.73-.29-.46-.72-.68-1.33-.68ZM93.97,3.26h.49c.42,0,.83-.02.83-.52,0-.43-.37-.48-.69-.48h-.62v1h0ZM93.5,1.87h1.17c.74,0,1.09.29,1.09.89s-.36.8-.82.85l.89,1.37h-.51l-.84-1.34h-.51v1.34h-.47V1.87h0,0ZM94.52,5.71c1.22,0,2.19-.99,2.19-2.28s-.97-2.28-2.19-2.28-2.19.99-2.19,2.28.96,2.28,2.19,2.28M94.52.77c1.45,0,2.66,1.14,2.66,2.66s-1.22,2.66-2.66,2.66-2.66-1.14-2.66-2.66,1.21-2.66,2.66-2.66"/>
</svg>