<svg xmlns="http://www.w3.org/2000/svg" set="nav" name="twc-logo-tm" theme="light" class="Icon--icon--2aW0V Icon--lightTheme--2Ktm2 MainMenuHeader--twcLogo--3Ovn0" data-testid="Icon" aria-label="The Weather Company - Home" viewBox="0 0 432.96 399.36" fill="currentColor"><title>The Weather Channel</title><path fill="currentColor" d="M152.48 347.3c0 4.02 2.48 6.71 5.9 6.71 2.51 0 5.01-1.3 7.01-3.52l.21-11.03h-.62c-9.31 0-12.5 1.74-12.5 7.84zM165.2 144c0-3.81-.4-5.81-1.61-7.72-1.3-1.99-3.2-3.01-5.9-3.01-5.12 0-8.04 4.02-8.04 11.13v.19h15.54V144h.01zm7.82 109.49c0 4.01 2.52 6.72 5.94 6.72 2.5 0 5.01-1.32 7.01-3.52l.21-11.03h-.6c-9.34.01-12.56 1.73-12.56 7.83zm-34.34-17.25c0-3.81-.41-5.8-1.6-7.7-1.32-2.02-3.22-3.03-5.94-3.03-5.11 0-8 4.03-8 11.14v.19h15.53v-.6h.01zM316 319.32c-5.1 0-8.01 4.02-8.01 11.15v.19h15.54v-.59c0-3.82-.39-5.83-1.59-7.72-1.32-2.02-3.22-3.03-5.94-3.03z"/><path fill="currentColor" d="M372.65 228.54c-1.33-.7-2.41-1.01-3.91-1.01-3.02 0-5.74 1.4-8.21 4.3v36.3h-13.46v-34.3c0-6.9-.8-12.13-1.9-15.02l12.02-3.24c1.21 2.11 1.9 4.44 2.12 7.32 1.92-2.59 5.09-5.4 7.63-6.51 1.1-.49 2.9-.81 4.38-.81 2.02 0 2.92.2 5.03 1.11l-3.7 11.86zM360.2 363.13c-5.73 0-10.32-2.69-11.94-7.03-1.01-2.59-1.21-4.18-1.21-11.5v-38.29c0-6.72-.19-10.82-.69-15.45l13.73-3.11c.5 2.81.71 6.14.71 13.33v40c0 8.82.1 10.02.88 11.42.5.89 1.62 1.39 2.72 1.39.5 0 .79 0 1.49-.18l2.3 8.02c-2.29.9-5.08 1.4-7.99 1.4zm-22.42-116.48h-29.67v.44c0 7.91 3.91 12.41 10.83 12.41 4.61 0 8.92-1.71 13.03-5.11l5.21 8.04c-5.91 4.8-12.12 7.1-19.34 7.1-14.73 0-24.25-10.43-24.25-26.55 0-9.24 1.89-15.35 6.4-20.35 4.22-4.72 9.33-6.92 16.14-6.92 5.92 0 11.53 1.99 14.85 5.4 4.7 4.83 6.81 11.76 6.81 22.47v3.07h-.01zm-.32 93.83H307.8v.41c0 7.9 3.92 12.42 10.83 12.42 4.62 0 8.91-1.72 13.02-5.12l5.23 8.04c-5.92 4.8-12.13 7.1-19.35 7.1-14.74 0-24.26-10.43-24.26-26.55 0-9.23 1.9-15.35 6.4-20.35 4.22-4.73 9.33-6.92 16.14-6.92 5.9 0 11.53 2.01 14.84 5.42 4.71 4.8 6.81 11.73 6.81 22.43v3.12zm-50.78-72.34h-13.13v-34.5c0-5.09-1.4-7.01-5.21-7.01-3.31 0-7.63 2.01-10.62 4.73v36.78h-13.63v-59.35c0-4.82-.4-9.61-1-11.73l13.73-3.21c.59 2.81.9 7.61.9 12.52v10.22c0 1.61-.2 3.72-.2 4.32 3.51-3.31 9.31-5.52 14.54-5.52 6.51 0 11.72 2.81 13.33 7.31.99 2.94 1.3 4.63 1.3 9.54v35.9h-.01zm-2.73 93.8h-13.23v-33.38c0-5.81-1.01-7.52-4.51-7.52-2.7 0-6.22 1.82-9.31 4.62v36.28h-13.45v-37.19c0-4.41-.6-8.61-1.79-12.04l11.95-3.4c1.18 2.1 1.88 4.31 1.88 6.41 2.01-1.38 3.72-2.6 5.91-3.81 2.73-1.39 6.23-2.19 9.22-2.19 5.71 0 10.73 2.99 12.32 7.42.74 1.9 1.02 4.11 1.02 7.31v37.49h-.01zm-57.3-92.61c-6.81 0-12.23-2.99-13.83-7.52-.8-2.23-.9-3.23-.9-7.92v-27.88h-5.11v-9.21h5.11c0-5 0-8.34.5-12.13l13.64-3.4c-.5 4.69-.8 10.32-.8 15.54h12.04l-3.42 9.21h-8.61v25.78c0 6.51 1.19 8.22 5.81 8.22 1.2 0 2.41-.32 4.81-1.01l1.7 8.01c-3.94 1.61-7.43 2.31-10.94 2.31zm4.99 92.61H218.4v-33.38c0-5.81-1.01-7.52-4.51-7.52-2.7 0-6.19 1.82-9.32 4.62v36.28h-13.44v-37.19c0-4.41-.58-8.61-1.77-12.04l11.92-3.4c1.2 2.1 1.91 4.31 1.91 6.41 1.99-1.38 3.69-2.6 5.9-3.81 2.7-1.39 6.21-2.19 9.21-2.19 5.72 0 10.74 2.99 12.33 7.42.71 1.9 1.02 4.11 1.02 7.31v37.49h-.01zm-55.28-91.9c-11.45 0-17.65-5.83-17.65-16.06 0-12.03 8.31-17.63 24.63-17.63 1.01 0 1.92 0 3.01.09v-2.11c0-5.69-1.09-7.61-6-7.61-4.3 0-9.32 2.13-14.83 5.85l-5.72-9.65c2.72-1.71 4.71-2.71 8.34-4.19 5-2.12 9.32-3.01 14.02-3.01 8.61 0 14.54 3.21 16.55 8.91.69 2.1.99 3.7.89 9.22l-.29 17.26v.9c0 5.5.89 7.58 4.8 10.51l-7.11 8.22c-3.11-1.31-5.92-3.59-7.22-6.22-1 .98-2.11 2.01-3.11 2.71-2.51 1.8-6.11 2.81-10.31 2.81zm.06 94.51c-3.1-1.31-5.92-3.61-7.21-6.23-1.01 1.02-2.11 2.01-3.11 2.72-2.51 1.81-6.11 2.8-10.33 2.8-11.43 0-17.65-5.82-17.65-16.02 0-12.04 8.33-17.67 24.67-17.67 1 0 1.91 0 3.01.1v-2.08c0-5.74-1.1-7.63-6.03-7.63-4.32 0-9.34 2.11-14.83 5.82l-5.73-9.64c2.72-1.7 4.73-2.69 8.34-4.19 5.02-2.12 9.32-3.01 14.05-3.01 8.59 0 14.52 3.19 16.51 8.93.72 2.1 1.03 3.72.92 9.21l-.29 17.26v.89c0 5.52.9 7.6 4.82 10.52l-7.14 8.22zM108.4 242.98c0-9.24 1.9-15.35 6.41-20.35 4.22-4.72 9.33-6.92 16.15-6.92 5.91 0 11.54 1.99 14.84 5.4 4.72 4.83 6.83 11.76 6.83 22.47v3.08h-29.68v.44c0 7.91 3.92 12.41 10.82 12.41 4.62 0 8.91-1.71 13.03-5.11l5.22 8.04c-5.92 4.8-12.14 7.1-19.36 7.1-14.73-.01-24.26-10.44-24.26-26.56zm20.64 118.96H115.9v-34.5c0-5.1-1.4-7-5.2-7-3.31 0-7.63 1.99-10.63 4.71v36.79H86.44V302.6c0-4.83-.41-9.62-1.01-11.74l13.75-3.2c.58 2.82.89 7.62.89 12.56v10.19c0 1.6-.2 3.72-.2 4.33 3.5-3.32 9.32-5.53 14.53-5.53 6.52 0 11.71 2.81 13.32 7.33 1.01 2.92 1.32 4.61 1.32 9.54v35.86zm-69.54 1.19c-9.63 0-17.05-3.09-22.76-9.61-5.62-6.31-8.43-14.73-8.43-24.96 0-8.72 1.52-15.64 4.7-21.65 5.44-10.12 15.46-16.14 26.69-16.14 6.91 0 13.82 2.21 17.64 5.52l-6.32 9.51c-3.51-2.6-7.22-3.9-11.12-3.9-4.72 0-9.33 2.29-11.83 6.01-2.7 4-3.91 9.83-3.91 17.94 0 9.52.79 14.83 2.89 18.65 2.81 5.12 7.42 7.81 13.44 7.81 4.1 0 7.82-1.19 11.93-4.49l6.42 8.81c-5.52 4.49-11.41 6.5-19.34 6.5zM40.56 198.45l6 27.48c2.81 13.04 3.72 22.95 3.72 22.95.29-2.7 1.5-12.64 3.59-22.25l6.21-28.18h15.35l6.44 31.19c1.3 6.51 3 18.45 3 18.45.19-2.22 2.39-16.36 3.8-23.18l5.72-26.47h14.73l-16.83 70.27H76.94l-6.23-28.36c-2.1-9.32-3.11-18.34-3.29-20.24 0 0-1.2 9.82-3.34 20.05l-5.8 28.55H42.36l-16.65-70.27h14.85v.01zm-14.34-92.24h50.22l-2.3 11.64H57.5v58.04H43.25v-58.04H26.22v-11.64zm69.95-4.61c.59 2.81.9 7.62.9 12.53v10.23c0 1.58-.21 3.71-.21 4.31 3.51-3.31 9.32-5.53 14.53-5.53 6.52 0 11.73 2.8 13.35 7.32 1 2.9 1.3 4.61 1.3 9.53v35.89H112.9V141.4c0-5.11-1.4-7.01-5.23-7.01-3.31 0-7.61 1.99-10.61 4.71v36.79H83.44v-59.35c0-4.82-.41-9.61-1.02-11.73l13.75-3.21zm45.17 28.78c4.21-4.72 9.32-6.94 16.14-6.94 5.9 0 11.52 2.03 14.84 5.44 4.71 4.82 6.81 11.71 6.81 22.45v3.11h-29.66v.41c0 7.92 3.9 12.42 10.81 12.42 4.6 0 8.92-1.69 13.03-5.12l5.23 8.04c-5.93 4.79-12.15 7.1-19.35 7.1-14.75 0-24.27-10.43-24.27-26.54.01-9.26 1.9-15.37 6.42-20.37zM.82.04v399.28h399.26V.04H.82z"/><path fill="currentColor" d="M316.33 225.51c-5.11 0-8.03 4.03-8.03 11.14v.19h15.55v-.6c0-3.81-.41-5.8-1.61-7.7-1.3-2.02-3.21-3.03-5.91-3.03zm101.57-211h2.16c1.87 0 3.69-.1 3.69-2.32 0-1.91-1.65-2.13-3.08-2.13h-2.77v4.45zm-2.09-6.16h5.21c3.27 0 4.83 1.3 4.83 3.94 0 2.51-1.59 3.56-3.65 3.78l3.97 6.1h-2.25l-3.75-5.94h-2.26v5.94h-2.09V8.35h-.01zm4.51 17.03c5.4 0 9.72-4.38 9.72-10.11 0-5.72-4.32-10.11-9.72-10.11-5.43 0-9.72 4.39-9.72 10.11 0 5.73 4.28 10.11 9.72 10.11m0-21.93c6.42 0 11.82 5.08 11.82 11.82s-5.4 11.82-11.82 11.82c-6.45 0-11.82-5.08-11.82-11.82 0-6.73 5.37-11.82 11.82-11.82"/></svg>