<svg xmlns="http://www.w3.org/2000/svg" set="footer" name="twitter" class="Icon--icon--2aW0V Footer--icon--2G63B" theme="" data-testid="Icon" viewBox="0 0 24 24"><title>Twitter</title><path d="M8.29 20.251c7.547 0 11.675-6.253 11.675-11.675 0-.178 0-.354-.012-.53A8.349 8.349 0 0022 5.922a8.19 8.19 0 01-2.357.645 4.118 4.118 0 001.804-2.27 8.223 8.223 0 01-2.605.997 4.107 4.107 0 00-6.993 3.742 11.65 11.65 0 01-8.457-4.287 4.106 4.106 0 001.27 5.477A4.073 4.073 0 012.8 9.713v.052a4.105 4.105 0 003.292 4.022 4.097 4.097 0 01-1.853.07 4.108 4.108 0 003.834 2.85A8.234 8.234 0 012 18.408a11.617 11.617 0 006.29 1.84" fill="currentColor" fill-rule="evenodd"/></svg>